<svg version="1" xmlns="http://www.w3.org/2000/svg" width="1365.333" height="1365.333" viewBox="0 0 1024.000000 1024.000000"><path d="M.7.7C.3 1 0 231.4 0 512.7V1024h1024V0H512.7C231.4 0 1 .3.7.7zm795 117c4 .6 4.1 1.2 4.9 24.3.7 20.7-.5 31.6-5.1 47.5-7.5 25.8-23.4 53.1-43.9 75.2-33.4 36.1-86.1 56.7-140.3 55.1-10.3-.3-14.6-.8-16.9-2.1-4.7-2.4-4.9-4.3-1-8.8l3.3-4-1.5-4.2c-2-5.6-2.8-30.6-1.3-43.4 2.5-20.8 7-37.2 14.7-53.2 8.2-17.1 17.5-28.5 35.2-43 30.7-25 71.6-40.8 114.4-44.1 10.9-.8 30.9-.5 37.5.7zM547 338.6c132.6 15 223.3 111.9 235.1 251.2 2.3 27.4.4 68.7-4.5 96.7-20.8 119.1-104.9 202-225.6 222.4-27.1 4.6-67.4 5.3-93.9 1.6-52.5-7.2-98.6-26.4-136-56.5-12.5-10.1-33.7-32-42.7-44-28.3-37.9-45.5-81.6-53-134.5-2.2-15.6-3-62.3-1.5-79.5 5.8-64 26.5-118.7 61.1-161.6 14.5-18 39.2-40.2 58.5-52.6 55.6-35.9 129-51.5 202.5-43.2z"/><path d="M483.1 421.1c-43.6 9.2-76.5 46.4-93.6 105.9-19.5 67.6-16.8 155.5 6.5 213.9 18.1 45.5 45.2 74.6 79.5 85.4 30.4 9.6 63.2 3.2 88.9-17.2 27.8-22.2 49.1-62.6 59.1-112.6 5.3-26.2 5.9-34.6 5.9-72.5 0-37.1-.6-45.2-5.5-70.6-12.3-64.2-42.3-111.1-81.4-127.4-17.1-7.1-40-9-59.4-4.9z"/></svg>